<?xml version="1.0" encoding="UTF-8" standalone="no"?>
<!-- Created with Inkscape (http://www.inkscape.org/) -->

<svg
   version="1.1"
   id="svg1"
   width="932.45563"
   height="297.49469"
   viewBox="0 0 932.45563 297.49469"
   sodipodi:docname="logo-big-dark.svg"
   inkscape:version="1.4.3 (0d15f75, 2025-12-25)"
   xmlns:inkscape="http://www.inkscape.org/namespaces/inkscape"
   xmlns:sodipodi="http://sodipodi.sourceforge.net/DTD/sodipodi-0.dtd"
   xmlns="http://www.w3.org/2000/svg"
   xmlns:svg="http://www.w3.org/2000/svg">
  <defs
     id="defs1" />
  <sodipodi:namedview
     id="namedview1"
     pagecolor="#505050"
     bordercolor="#eeeeee"
     borderopacity="1"
     inkscape:showpageshadow="0"
     inkscape:pageopacity="0"
     inkscape:pagecheckerboard="0"
     inkscape:deskcolor="#505050"
     inkscape:zoom="0.74301455"
     inkscape:cx="496.62554"
     inkscape:cy="120.45525"
     inkscape:window-width="1920"
     inkscape:window-height="1009"
     inkscape:window-x="-8"
     inkscape:window-y="-8"
     inkscape:window-maximized="1"
     inkscape:current-layer="g1" />
  <g
     inkscape:groupmode="layer"
     inkscape:label="Image"
     id="g1"
     transform="translate(-237.63338,-235.09163)">
    <path
       style="fill:#e0e7ed;fill-opacity:1"
       d="m 650.6563,339.86747 c -3.11012,-1.80788 -4.93625,-7.4892 -3.65503,-11.37132 C 650.34815,318.35499 666,320.60141 666,331.22293 c 0,1.98742 -0.27953,4.34194 -0.62118,5.23227 -1.43936,3.75091 -10.51949,5.85543 -14.72252,3.41227 z"
       id="path34" />
    <path
       style="fill:#e0e7ed;fill-opacity:1"
       d="M 694,401.5 V 358 h 7 7 l 0.0406,6.75 0.0406,6.75 2.70936,-3.10997 c 3.73965,-4.29259 9.9029,-7.95436 16.72756,-9.93834 7.8043,-2.26878 23.0996,-1.61004 29.4818,1.2697 7.55992,3.41116 13.42192,9.41016 16.62671,17.0153 l 2.85004,6.76331 0.32675,30.75 0.32676,30.75 H 770.06513 763 v -26.8185 c 0,-30.40002 -0.6755,-34.60279 -6.61895,-41.18148 -4.80417,-5.31764 -11.26814,-7.38271 -21.25442,-6.79021 -8.37443,0.49686 -12.73013,2.231 -17.96426,7.15214 C 709.37486,384.68379 708,391.31433 708,421.54922 V 445 h -7 -7 z"
       id="path33" />
    <path
       style="fill:#e0e7ed;fill-opacity:1"
       d="M 649,401.5 V 358 h 7.5 7.5 v 43.5 43.5 h -7.5 -7.5 z"
       id="path32" />
    <path
       style="fill:#e0e7ed;fill-opacity:1"
       d="m 553,387 v -58 h 7.5 7.5 l 8.9e-4,51.75 8.8e-4,51.75 H 600.25089 632.5 l 0.29772,6.25 0.29771,6.25 H 593.04772 553 Z"
       id="path31" />
    <path
       style="fill:#e0e7ed;fill-opacity:1"
       d="m 825,444.10558 c -6.50937,-2.30671 -12.34683,-8.23985 -14.24438,-14.47786 C 809.87863,426.74472 809.5,417.20735 809.5,398 v -27.5 l -8,-0.5 -8,-0.5 -0.2999,-5.75 -0.29991,-5.75 h 8.01492 8.01492 L 809.21502,347.75 809.5,337.5 h 7 7 l 0.28498,10.25 0.28499,10.25 H 837.53498 851 v 6 6 h -13.55712 -13.55712 l 0.30712,28.25 c 0.33591,30.8985 0.37836,31.12709 6.38071,34.35956 3.82827,2.06166 14.03874,1.47581 17.58639,-1.00906 3.16362,-2.21589 3.61959,-2.06383 5.20751,1.7366 2.98244,7.13798 3.02143,6.99553 -2.62631,9.59561 -7.2498,3.33764 -18.22159,3.83756 -25.74118,1.17287 z"
       id="path30" />
    <path
       style="fill:#1da1c0;fill-opacity:1"
       d="m 1117.5,446.03866 c -15.4285,-3.33083 -27.1377,-12.18927 -33.8951,-25.64279 -5.7173,-11.38293 -5.9383,-24.92994 -0.6152,-37.71656 2.3981,-5.76047 4.3742,-8.53965 9.7587,-13.72473 C 1103.0738,359.01153 1113.495,355 1129,355 c 14.6422,0 24.4891,3.56628 33.576,12.16028 4.5515,4.30467 8.4631,10.30151 7.3086,11.20473 -0.2115,0.16549 -4.8242,2.66987 -10.2503,5.5653 l -9.8657,5.26442 -4.7057,-4.93368 c -6.7167,-7.04208 -14.8203,-8.92598 -24.3816,-5.66814 -12.4956,4.25768 -18.3434,21.35249 -11.734,34.30216 2.2417,4.3922 4.23,6.20654 9.9614,9.0897 3.626,1.82407 5.6866,2.15327 11.6068,1.85431 6.5889,-0.33272 7.5858,-0.6812 11.779,-4.11714 2.5194,-2.0645 4.8642,-4.64651 5.2105,-5.73779 0.3464,-1.09128 1.2634,-1.98415 2.0378,-1.98415 2.6482,0 20.4572,10.15502 20.4572,11.66509 0,0.81775 -1.9742,4.04014 -4.3871,7.16087 -4.5266,5.85461 -12.0767,11.14902 -19.8434,13.91509 -4.9523,1.76373 -22.4006,2.56463 -28.2695,1.29761 z"
       id="path29" />
    <path
       id="path27"
       style="fill:#1da1c0;fill-opacity:1"
       d="m 1042,390.46016 c 0,-3.04302 -4.0016,-9.298 -7.2189,-11.28395 -11.3665,-7.01624 -26.0851,-4.02309 -32.525,6.61421 -1.2352,2.04027 -2.2482,4.27208 -2.251,4.95958 0,0.96048 4.8588,1.25 20.9949,1.25 18.2415,0 21,-0.20227 21,-1.53984 z m -31.7159,55.03011 c -6.378,-1.38598 -13.64999,-4.61048 -19.58479,-8.68422 -5.11582,-3.51157 -9.36975,-8.87726 -12.72885,-16.05548 -10.24106,-21.88465 -2.50359,-48.14309 17.44929,-59.21715 9.77435,-5.42488 16.24605,-6.85317 28.50345,-6.29067 12.7839,0.58666 19.4854,2.86795 28.3991,9.66754 5.1824,3.95325 6.8707,6.07203 10.4791,13.15109 3.737,7.33136 4.431,9.72213 5.2893,18.22048 0.5434,5.38003 0.7187,10.21753 0.3896,10.75 C 1068.1136,407.62523 1054.7634,408 1033.993,408 h -33.889 l 1.057,3.03209 c 1.4318,4.10715 6.3994,8.88594 11.6528,11.20976 9.6357,4.26231 21.4451,3.17722 30.0821,-2.76404 l 4.7953,-3.29856 7.1544,6.80841 c 3.9349,3.74463 7.1544,7.49653 7.1544,8.33757 0,2.18605 -6.5004,7.29553 -13.5,10.61128 -10.381,4.91755 -25.479,6.32154 -38.2159,3.55376 z" />
    <path
       style="fill:#1da1c0;fill-opacity:1"
       d="m 891.34082,445.04573 c -7.84456,-1.82793 -20.74263,-7.1884 -24.77316,-10.29579 -1.88184,-1.45084 -1.81652,-1.75751 2.5,-11.73649 2.43779,-5.6357 4.91271,-10.43587 5.49982,-10.66704 0.58712,-0.23117 3.73712,1.18766 7,3.15296 8.38836,5.05247 17.29804,7.62635 28.49738,8.23251 11.14275,0.60309 19.8374,-1.32655 22.38851,-4.96876 1.967,-2.80829 1.99145,-8.68303 0.0477,-11.45814 -1.68156,-2.40076 -11.33294,-5.84616 -27.26954,-9.73481 -18.58753,-4.53551 -28.43225,-9.66354 -33.30616,-17.3489 -3.99164,-6.29417 -5.24173,-11.43377 -4.67513,-19.22127 1.1647,-16.00783 12.42241,-27.35348 32.20986,-32.46145 15.56116,-4.01699 47.37103,0.23804 56.39268,7.54332 2.13661,1.73012 2.22354,2.16829 1.12033,5.6469 -0.65781,2.07417 -1.73489,4.67123 -2.39353,5.77123 -0.65864,1.1 -2.00698,4.16703 -2.99632,6.81563 -1.03319,2.76599 -2.28496,4.60691 -2.94103,4.32523 -18.15403,-7.79418 -18.89079,-7.99958 -30.23057,-8.42776 -9.75509,-0.36835 -11.57738,-0.1692 -15.15548,1.65621 -10.29564,5.25244 -11.04787,14.68393 -1.48966,18.6776 1.99802,0.83483 10.80652,3.29942 19.57444,5.47687 17.23451,4.28007 24.58962,7.16915 30.82593,12.1084 7.62706,6.04074 10.20361,12.27412 9.99379,24.17766 -0.25697,14.57852 -9.46843,25.99379 -25.66068,31.79989 -8.75021,3.13758 -33.50884,3.65075 -45.15918,0.936 z"
       id="path26" />
    <path
       style="fill:#1da1c0;fill-opacity:1"
       d="m 281.44167,470.23197 c -6.05538,-7.38915 -17.69392,-25.76863 -22.88884,-36.14585 -7.43936,-14.86064 -12.29909,-28.43398 -15.60031,-43.57206 -4.2535,-19.50486 -5.03979,-30.04256 -5.25556,-70.43436 -0.18215,-34.09531 -0.0632,-37.01622 1.58132,-38.83403 1.50293,-1.66129 3.67071,-2.07501 14,-2.67193 32.79831,-1.89538 51.96627,-6.56305 74.59906,-18.16592 10.87057,-5.57287 22.1024,-13.17887 21.79467,-14.75896 -0.0946,-0.48575 0.56267,-1.00789 1.46061,-1.16031 0.89795,-0.15242 3.64698,-2.3497 6.10896,-4.88284 6.05239,-6.22732 8.1101,-6.10207 15.43873,0.93966 12.78048,12.28016 30.72198,22.51385 51.31969,29.27235 15.4743,5.07741 25.84046,6.91727 47,8.34192 15.45336,1.04045 16.64272,1.26446 18.75,3.5314 l 2.25,2.42049 v 38.40985 c 0,29.09167 -0.37461,41.14743 -1.54415,49.69424 -1.82116,13.30866 -7.18158,34.52452 -11.41669,45.18579 -5.50801,13.86562 -16.5663,34.567 -23.28956,43.59859 -1.02357,1.375 -3.43874,4.64689 -5.36705,7.27086 -1.92831,2.62398 -3.92824,4.50992 -4.44429,4.19099 C 445.42222,472.14291 445,467.24421 445,461.57584 c 0,-8.55753 0.31777,-10.71075 1.87294,-12.69098 6.44652,-8.20848 15.52129,-26.3275 21.05608,-42.04135 8.26827,-23.47446 9.92103,-36.40573 10.29199,-80.52484 L 478.5,293.13735 470,292.55233 c -23.54474,-1.62046 -43.71564,-6.11109 -63.10152,-14.04822 -14.73518,-6.03301 -28.74614,-14.43701 -38.85073,-23.3033 l -3.45226,-3.02919 -3.04774,2.4782 c -19.88175,16.16635 -38.06563,25.28484 -63.15329,31.66884 -16.53558,4.20777 -25.71348,5.67655 -35.58601,5.69499 -4.01965,0.008 -8.39158,0.30347 -9.7154,0.65768 l -2.40694,0.64402 0.64875,34.09232 c 0.72003,37.83862 1.69241,47.11387 7.03364,67.09233 4.9214,18.40809 13.83992,38.20678 24.03513,53.3568 3.55535,5.28323 3.59637,5.46278 3.59637,15.74369 0,5.71973 -0.3375,10.3914 -0.75,10.38148 -0.4125,-0.01 -2.12625,-1.69741 -3.80833,-3.75 z"
       id="path25" />
    <path
       id="path18"
       style="fill:#1da1c0;fill-opacity:1"
       d="M 326.31471,427.53634 C 321.79128,425.56897 320,421.44547 320,413 c 0,-7.83673 -1.716,-12.43096 -4.95995,-13.27928 -3.09601,-0.80962 -2.84757,-6.4632 0.33723,-7.67406 3.08944,-1.1746 4.62272,-5.73378 4.62272,-13.74554 0,-9.9164 3.29244,-14.26015 11.09422,-14.63673 3.15308,-0.15219 3.42907,0.0773 3.71965,3.09249 0.23548,2.44344 -0.13916,3.39805 -1.5,3.82215 -4.51719,1.40774 -4.80352,1.98029 -5.41578,10.82945 -0.4655,6.72818 -1.09547,9.36722 -2.77993,11.64557 L 322.94013,396 l 2.27993,3.08203 c 1.88371,2.5464 2.34049,4.62682 2.62835,11.97085 l 0.34841,8.88884 3.40159,1.23003 c 3.40292,1.23051 3.65159,1.52525 3.65159,4.32825 0,0.825 -0.0562,1.95 -0.125,2.5 -0.17799,1.4239 -5.06126,1.16691 -8.81029,-0.46366 z m 70.35196,0.79699 c -1.17521,-1.1752 -0.71177,-6.32783 0.58333,-6.48564 0.6875,-0.0838 1.75151,-0.20306 2.36446,-0.26508 3.37732,-0.3417 4.38555,-2.85811 4.38928,-10.95505 0.003,-6.34978 0.43911,-8.84163 1.99414,-11.3921 1.98744,-3.25968 1.98744,-3.2701 -0.004,-6.9852 C 404.50047,389.46339 404,386.61162 404,380.88725 c 0,-8.13108 -0.65174,-9.43995 -5,-10.04143 -2.12461,-0.29389 -2.5,-0.87137 -2.5,-3.84582 0,-3.41357 0.0948,-3.49699 3.84015,-3.37794 4.24471,0.13491 8.49882,2.78449 10.39511,6.47434 0.67939,1.32198 1.24189,6.04636 1.25,10.49861 0.0153,8.39077 0.80018,10.13831 5.26474,11.72161 2.74065,0.97193 2.34685,6.50596 -0.5411,7.60396 -3.79516,1.44291 -4.45846,3.17415 -4.89888,12.78621 -0.454,9.90865 -1.44737,12.02008 -7.008,14.89559 -2.85456,1.47615 -7.01623,1.85007 -8.13535,0.73095 z M 339.90206,407.817 c -0.9947,-1.85861 -0.83487,-2.45299 1.0756,-4 C 342.99735,402.18156 345.46537,402 365.67653,402 388.60269,402 392,402.49497 392,405.83518 392,409.75754 390.44765,410 365.33518,410 c -23.91938,0 -24.28144,-0.0311 -25.43312,-2.183 z M 340.2,387.8 c -1.5794,-1.5794 -1.51912,-3.29027 0.16519,-4.68812 1.36525,-1.13305 14.70732,-1.56566 38.86576,-1.26021 L 390.9619,382 l 0.6544,2.60733 c 0.43319,1.726 0.18612,2.9039 -0.73095,3.48469 -2.23231,1.41374 -49.25048,1.14285 -50.68535,-0.29202 z m 89.6,93 c 0.91008,-0.91008 1.2,-17.82222 1.2,-70 V 342 H 417.01578 403.03155 L 399.76578,339.08313 396.5,336.16627 396.1541,322.08313 395.80821,308 h -46.86892 c -43.62504,0 -46.93167,0.12112 -47.77549,1.75 -0.52925,1.02164 -0.762,36.88854 -0.55923,86.17612 0.27565,67.00026 0.6103,84.59301 1.62138,85.23469 0.70073,0.44471 29.42155,0.81546 63.82405,0.82388 47.334,0.0116 62.84191,-0.2766 63.75,-1.18469 z m -6.37815,-148.14305 c -0.28345,-0.73867 -4.76933,-5.27025 -9.96861,-10.07017 L 404,313.85965 v 9.40351 c 0,5.17193 0.3,9.70351 0.66667,10.07017 0.36666,0.36667 4.85254,0.66667 9.96861,0.66667 7.37442,0 9.19516,-0.2783 8.78657,-1.34305 z M 301.20904,489.01556 c -4.38579,-1.03911 -6.98483,-3.54862 -8.19785,-7.91547 -0.62968,-2.26681 -1.0021,-34.44333 -1.00561,-86.88221 -0.006,-91.74511 -0.23884,-88.2762 6.18424,-92.19225 3.20312,-1.95288 4.92413,-2.01827 53.21073,-2.02189 L 401.3011,300 l 17.59945,17.21484 c 9.6797,9.46816 18.146,18.13066 18.81401,19.25 0.92148,1.54405 1.22312,19.25178 1.25,73.38087 0.0325,65.49184 -0.10454,71.58268 -1.67062,74.23384 -3.57673,6.05492 -2.06842,5.93035 -70.44507,5.81809 -34.29188,-0.0563 -63.8298,-0.45323 -65.63983,-0.88208 z" />
    <path
       style="fill:#1da1c0;fill-opacity:1"
       d="M 360,530.66577 C 345.61452,524.56383 311.13517,501.60078 309.16667,496.81106 308.98333,496.36498 313.3881,496 318.95503,496 h 10.12169 l 8.71164,5.80615 c 9.62667,6.41601 15.62189,9.97563 23.27708,13.82061 l 5.0866,2.55485 9.67398,-5.79975 c 5.32069,-3.18986 13.1882,-8.18072 17.48336,-11.0908 L 401.11876,496 h 9.94062 c 5.46734,0 9.94062,0.41125 9.94062,0.9139 0,3.18946 -46.21622,33.96925 -53.49615,35.62819 -1.10212,0.25115 -4.47885,-0.5932 -7.50385,-1.87632 z"
       id="path1" />
  </g>
</svg>
