<?xml version="1.0" encoding="UTF-8" standalone="no"?>
<!-- Created with Inkscape (http://www.inkscape.org/) -->

<svg
   version="1.1"
   id="svg1"
   width="254.36662"
   height="297.49469"
   viewBox="0 0 254.36662 297.49469"
   sodipodi:docname="logo-smal.svg"
   inkscape:version="1.4.3 (0d15f75, 2025-12-25)"
   xmlns:inkscape="http://www.inkscape.org/namespaces/inkscape"
   xmlns:sodipodi="http://sodipodi.sourceforge.net/DTD/sodipodi-0.dtd"
   xmlns="http://www.w3.org/2000/svg"
   xmlns:svg="http://www.w3.org/2000/svg">
  <defs
     id="defs1" />
  <sodipodi:namedview
     id="namedview1"
     pagecolor="#505050"
     bordercolor="#eeeeee"
     borderopacity="1"
     inkscape:showpageshadow="0"
     inkscape:pageopacity="0"
     inkscape:pagecheckerboard="0"
     inkscape:deskcolor="#505050"
     inkscape:zoom="0.74301455"
     inkscape:cx="448.17427"
     inkscape:cy="120.45525"
     inkscape:window-width="1920"
     inkscape:window-height="1009"
     inkscape:window-x="-8"
     inkscape:window-y="-8"
     inkscape:window-maximized="1"
     inkscape:current-layer="g1" />
  <g
     inkscape:groupmode="layer"
     inkscape:label="Image"
     id="g1"
     transform="translate(-237.63338,-235.09163)">
    <path
       style="fill:#1da1c0;fill-opacity:1"
       d="m 281.44167,470.23197 c -6.05538,-7.38915 -17.69392,-25.76863 -22.88884,-36.14585 -7.43936,-14.86064 -12.29909,-28.43398 -15.60031,-43.57206 -4.2535,-19.50486 -5.03979,-30.04256 -5.25556,-70.43436 -0.18215,-34.09531 -0.0632,-37.01622 1.58132,-38.83403 1.50293,-1.66129 3.67071,-2.07501 14,-2.67193 32.79831,-1.89538 51.96627,-6.56305 74.59906,-18.16592 10.87057,-5.57287 22.1024,-13.17887 21.79467,-14.75896 -0.0946,-0.48575 0.56267,-1.00789 1.46061,-1.16031 0.89795,-0.15242 3.64698,-2.3497 6.10896,-4.88284 6.05239,-6.22732 8.1101,-6.10207 15.43873,0.93966 12.78048,12.28016 30.72198,22.51385 51.31969,29.27235 15.4743,5.07741 25.84046,6.91727 47,8.34192 15.45336,1.04045 16.64272,1.26446 18.75,3.5314 l 2.25,2.42049 v 38.40985 c 0,29.09167 -0.37461,41.14743 -1.54415,49.69424 -1.82116,13.30866 -7.18158,34.52452 -11.41669,45.18579 -5.50801,13.86562 -16.5663,34.567 -23.28956,43.59859 -1.02357,1.375 -3.43874,4.64689 -5.36705,7.27086 -1.92831,2.62398 -3.92824,4.50992 -4.44429,4.19099 C 445.42222,472.14291 445,467.24421 445,461.57584 c 0,-8.55753 0.31777,-10.71075 1.87294,-12.69098 6.44652,-8.20848 15.52129,-26.3275 21.05608,-42.04135 8.26827,-23.47446 9.92103,-36.40573 10.29199,-80.52484 L 478.5,293.13735 470,292.55233 c -23.54474,-1.62046 -43.71564,-6.11109 -63.10152,-14.04822 -14.73518,-6.03301 -28.74614,-14.43701 -38.85073,-23.3033 l -3.45226,-3.02919 -3.04774,2.4782 c -19.88175,16.16635 -38.06563,25.28484 -63.15329,31.66884 -16.53558,4.20777 -25.71348,5.67655 -35.58601,5.69499 -4.01965,0.008 -8.39158,0.30347 -9.7154,0.65768 l -2.40694,0.64402 0.64875,34.09232 c 0.72003,37.83862 1.69241,47.11387 7.03364,67.09233 4.9214,18.40809 13.83992,38.20678 24.03513,53.3568 3.55535,5.28323 3.59637,5.46278 3.59637,15.74369 0,5.71973 -0.3375,10.3914 -0.75,10.38148 -0.4125,-0.01 -2.12625,-1.69741 -3.80833,-3.75 z"
       id="path25" />
    <path
       id="path18"
       style="fill:#1da1c0;fill-opacity:1"
       d="M 326.31471,427.53634 C 321.79128,425.56897 320,421.44547 320,413 c 0,-7.83673 -1.716,-12.43096 -4.95995,-13.27928 -3.09601,-0.80962 -2.84757,-6.4632 0.33723,-7.67406 3.08944,-1.1746 4.62272,-5.73378 4.62272,-13.74554 0,-9.9164 3.29244,-14.26015 11.09422,-14.63673 3.15308,-0.15219 3.42907,0.0773 3.71965,3.09249 0.23548,2.44344 -0.13916,3.39805 -1.5,3.82215 -4.51719,1.40774 -4.80352,1.98029 -5.41578,10.82945 -0.4655,6.72818 -1.09547,9.36722 -2.77993,11.64557 L 322.94013,396 l 2.27993,3.08203 c 1.88371,2.5464 2.34049,4.62682 2.62835,11.97085 l 0.34841,8.88884 3.40159,1.23003 c 3.40292,1.23051 3.65159,1.52525 3.65159,4.32825 0,0.825 -0.0562,1.95 -0.125,2.5 -0.17799,1.4239 -5.06126,1.16691 -8.81029,-0.46366 z m 70.35196,0.79699 c -1.17521,-1.1752 -0.71177,-6.32783 0.58333,-6.48564 0.6875,-0.0838 1.75151,-0.20306 2.36446,-0.26508 3.37732,-0.3417 4.38555,-2.85811 4.38928,-10.95505 0.003,-6.34978 0.43911,-8.84163 1.99414,-11.3921 1.98744,-3.25968 1.98744,-3.2701 -0.004,-6.9852 C 404.50047,389.46339 404,386.61162 404,380.88725 c 0,-8.13108 -0.65174,-9.43995 -5,-10.04143 -2.12461,-0.29389 -2.5,-0.87137 -2.5,-3.84582 0,-3.41357 0.0948,-3.49699 3.84015,-3.37794 4.24471,0.13491 8.49882,2.78449 10.39511,6.47434 0.67939,1.32198 1.24189,6.04636 1.25,10.49861 0.0153,8.39077 0.80018,10.13831 5.26474,11.72161 2.74065,0.97193 2.34685,6.50596 -0.5411,7.60396 -3.79516,1.44291 -4.45846,3.17415 -4.89888,12.78621 -0.454,9.90865 -1.44737,12.02008 -7.008,14.89559 -2.85456,1.47615 -7.01623,1.85007 -8.13535,0.73095 z M 339.90206,407.817 c -0.9947,-1.85861 -0.83487,-2.45299 1.0756,-4 C 342.99735,402.18156 345.46537,402 365.67653,402 388.60269,402 392,402.49497 392,405.83518 392,409.75754 390.44765,410 365.33518,410 c -23.91938,0 -24.28144,-0.0311 -25.43312,-2.183 z M 340.2,387.8 c -1.5794,-1.5794 -1.51912,-3.29027 0.16519,-4.68812 1.36525,-1.13305 14.70732,-1.56566 38.86576,-1.26021 L 390.9619,382 l 0.6544,2.60733 c 0.43319,1.726 0.18612,2.9039 -0.73095,3.48469 -2.23231,1.41374 -49.25048,1.14285 -50.68535,-0.29202 z m 89.6,93 c 0.91008,-0.91008 1.2,-17.82222 1.2,-70 V 342 H 417.01578 403.03155 L 399.76578,339.08313 396.5,336.16627 396.1541,322.08313 395.80821,308 h -46.86892 c -43.62504,0 -46.93167,0.12112 -47.77549,1.75 -0.52925,1.02164 -0.762,36.88854 -0.55923,86.17612 0.27565,67.00026 0.6103,84.59301 1.62138,85.23469 0.70073,0.44471 29.42155,0.81546 63.82405,0.82388 47.334,0.0116 62.84191,-0.2766 63.75,-1.18469 z m -6.37815,-148.14305 c -0.28345,-0.73867 -4.76933,-5.27025 -9.96861,-10.07017 L 404,313.85965 v 9.40351 c 0,5.17193 0.3,9.70351 0.66667,10.07017 0.36666,0.36667 4.85254,0.66667 9.96861,0.66667 7.37442,0 9.19516,-0.2783 8.78657,-1.34305 z M 301.20904,489.01556 c -4.38579,-1.03911 -6.98483,-3.54862 -8.19785,-7.91547 -0.62968,-2.26681 -1.0021,-34.44333 -1.00561,-86.88221 -0.006,-91.74511 -0.23884,-88.2762 6.18424,-92.19225 3.20312,-1.95288 4.92413,-2.01827 53.21073,-2.02189 L 401.3011,300 l 17.59945,17.21484 c 9.6797,9.46816 18.146,18.13066 18.81401,19.25 0.92148,1.54405 1.22312,19.25178 1.25,73.38087 0.0325,65.49184 -0.10454,71.58268 -1.67062,74.23384 -3.57673,6.05492 -2.06842,5.93035 -70.44507,5.81809 -34.29188,-0.0563 -63.8298,-0.45323 -65.63983,-0.88208 z" />
    <path
       style="fill:#1da1c0;fill-opacity:1"
       d="M 360,530.66577 C 345.61452,524.56383 311.13517,501.60078 309.16667,496.81106 308.98333,496.36498 313.3881,496 318.95503,496 h 10.12169 l 8.71164,5.80615 c 9.62667,6.41601 15.62189,9.97563 23.27708,13.82061 l 5.0866,2.55485 9.67398,-5.79975 c 5.32069,-3.18986 13.1882,-8.18072 17.48336,-11.0908 L 401.11876,496 h 9.94062 c 5.46734,0 9.94062,0.41125 9.94062,0.9139 0,3.18946 -46.21622,33.96925 -53.49615,35.62819 -1.10212,0.25115 -4.47885,-0.5932 -7.50385,-1.87632 z"
       id="path1" />
  </g>
</svg>
